<svg width="128" height="128" viewBox="0 0 128 128" fill="none" xmlns="http://www.w3.org/2000/svg">
<rect width="128" height="128" fill="white"/>
<path fill-rule="evenodd" clip-rule="evenodd" d="M90.7591 50.6044C88.6167 31.6171 72.448 16.8 52.9 16.8C31.9 16.8 14.8 33.9 14.8 54.9C14.8 75.431 31.1447 92.2342 51.499 92.9746C51.935 95.3374 52.6018 97.6195 53.4751 99.7964C53.2837 99.7988 53.092 99.8 52.9 99.8C28.1 99.8 8 79.7 8 54.9C8 30.1 28.1 10 52.9 10C76.7432 10 96.2421 28.579 97.7111 52.0516C95.4797 51.3499 93.1545 50.8597 90.7591 50.6044Z" fill="#008673"/>
<path d="M63.2 44.5C60.5 41.9 56.9 40.3 52.9 40.3C44.8 40.3 38.2 46.9 38.2 55C38.2 59 39.8 62.6 42.4 65.3C42.4 65.3 42.5 65.4 42.6 65.4C42.7 65.4 42.7 65.3 42.8 65.3C45.2 61.6 48.1 57.6 52 53.7C55.8 50 59.7 47.1 63.3 44.8C63.3 44.8 63.4 44.7 63.4 44.6C63.2 44.6 63.2 44.5 63.2 44.5Z" fill="#008673"/>
<path d="M52.9 26.1C60.6 26.1 67.8 29.1 73.3 34.5C76.6 37.8 76.5 39 76.5 39.1C76.4 40.4 71.9 43.1 69 45C64.7 47.7 59.3 51 54.3 56C49.3 61 45.9 66.5 43.1 70.9C41.2 73.9 38.3 78.5 37.1 78.5C37 78.5 35.6 78.4 32.6 75.4C27.2 70 24.2 62.7 24.2 55C24.2 47.3 27.2 40.1 32.6 34.6C37.9 29.1 45.2 26.1 52.9 26.1ZM52.9 21.8C44.4 21.8 35.9 25 29.4 31.5C16.4 44.5 16.4 65.5 29.4 78.4C32.5 81.5 34.9 82.8 37 82.8C43.6 82.8 46.7 69.6 57.3 59C71.1 45.2 89.3 44.4 76.4 31.4C69.8 25 61.3 21.8 52.9 21.8Z" fill="#01A78F"/>
<path d="M33.2 55C33.2 44.2 42 35.4 52.8 35.4C58.6 35.4 63.8 37.9 67.4 41.9L67.5 42C67.6 42 67.7 42 67.7 42C68.6 41.4 69.9 40.6 71 39.8L71.1 39.7C71.1 39.6 71.1 39.6 71.1 39.6C66.7 34.4 60.2 31.1 52.8 31.1C39.6 31.1 28.8 41.8 28.8 55.1C28.8 62.4 32.1 69 37.2 73.3C37.2 73.3 37.3 73.4 37.4 73.3C37.5 73.3 37.5 73.2 37.5 73.2C38.3 72.1 39.1 70.8 39.7 69.8V69.7L39.6 69.6C35.7 66 33.2 60.8 33.2 55Z" fill="#01A78F"/>
<path d="M86.4974 55C83.8168 55 81.3037 55.1675 79.1257 55.6702C72.5916 56.8429 71.4188 59.1885 71.4188 63.5445V69.4084H86.8325V71.4188H65.7225C61.199 71.4188 57.3455 74.0995 56.0052 79.1257C54.6649 84.9895 54.6649 88.6754 56.0052 94.7068C57.178 99.3979 59.8586 102.581 64.2147 102.581H69.5759V95.5445C69.5759 90.5183 73.9319 85.9948 79.1257 85.9948H94.3717C98.7277 85.9948 102.079 82.4764 102.079 78.288V63.5445C102.079 59.5236 98.5602 56.3403 94.3717 55.6702C91.8586 55.1675 89.0105 55 86.4974 55ZM78.1204 59.6911C79.7958 59.6911 80.9686 61.0314 80.9686 62.7068C80.9686 64.2147 79.7958 65.555 78.1204 65.555C76.6126 65.555 75.2723 64.2147 75.2723 62.7068C75.2723 61.0314 76.6126 59.6911 78.1204 59.6911Z" fill="#5A9FD4"/>
<path d="M87.1675 119C89.8482 119 92.3613 118.832 94.5393 118.33C101.073 117.157 102.246 114.812 102.246 110.455V104.592H86.8325V102.581H107.942C112.466 102.581 116.319 99.9005 117.66 94.8743C119 89.0105 119 85.3246 117.66 79.2932C116.487 74.6021 113.806 71.4189 109.45 71.4189H104.089V78.4555C104.089 83.4817 99.733 88.0052 94.5393 88.0052H79.2932C74.9372 88.0052 71.5864 91.5236 71.5864 95.712V110.455C71.5864 114.476 75.1047 117.66 79.2932 118.33C81.8063 118.832 84.6544 119 87.1675 119ZM95.5445 114.309C93.8691 114.309 92.6963 112.969 92.6963 111.293C92.6963 109.785 93.8691 108.445 95.5445 108.445C97.0524 108.445 98.3927 109.785 98.3927 111.293C98.3927 112.969 97.0524 114.309 95.5445 114.309Z" fill="#FFD43B"/>
</svg>
