<svg width="702" height="157" viewBox="0 0 702 157" fill="none" xmlns="http://www.w3.org/2000/svg">
<rect width="702" height="157" fill="white"/>
<path fill-rule="evenodd" clip-rule="evenodd" d="M106.759 64.6044C104.617 45.6171 88.448 30.8 68.9 30.8C47.9 30.8 30.8 47.9 30.8 68.9C30.8 89.431 47.1447 106.234 67.499 106.975C67.935 109.337 68.6018 111.619 69.4751 113.796C69.2837 113.799 69.092 113.8 68.9 113.8C44.1 113.8 24 93.7 24 68.9C24 44.1 44.1 24 68.9 24C92.7432 24 112.242 42.579 113.711 66.0516C111.48 65.3499 109.155 64.8597 106.759 64.6044Z" fill="#008673"/>
<path d="M79.2 58.5C76.5 55.9 72.9 54.3 68.9 54.3C60.8 54.3 54.2 60.9 54.2 69C54.2 73 55.8 76.6 58.4 79.3C58.4 79.3 58.5 79.4 58.6 79.4C58.7 79.4 58.7 79.3 58.8 79.3C61.2 75.6 64.1 71.6 68 67.7C71.8 64 75.7 61.1 79.3 58.8C79.3 58.8 79.4 58.7 79.4 58.6C79.2 58.6 79.2 58.5 79.2 58.5Z" fill="#008673"/>
<path d="M68.9 40.1C76.6 40.1 83.8 43.1 89.3 48.5C92.6 51.8 92.5 53 92.5 53.1C92.4 54.4 87.9 57.1 85 59C80.7 61.7 75.3 65 70.3 70C65.3 75 61.9 80.5 59.1 84.9C57.2 87.9 54.3 92.5 53.1 92.5C53 92.5 51.6 92.4 48.6 89.4C43.2 84 40.2 76.7 40.2 69C40.2 61.3 43.2 54.1 48.6 48.6C53.9 43.1 61.2 40.1 68.9 40.1ZM68.9 35.8C60.4 35.8 51.9 39 45.4 45.5C32.4 58.5 32.4 79.5 45.4 92.4C48.5 95.5 50.9 96.8 53 96.8C59.6 96.8 62.7 83.6 73.3 73C87.1 59.2 105.3 58.4 92.4 45.4C85.8 39 77.3 35.8 68.9 35.8Z" fill="#01A78F"/>
<path d="M49.2 69C49.2 58.2 58 49.4 68.8 49.4C74.6 49.4 79.8 51.9 83.4 55.9L83.5 56C83.6 56 83.7001 56 83.7001 56C84.6001 55.4 85.9 54.6 87 53.8L87.1 53.7C87.1 53.6 87.1 53.6 87.1 53.6C82.7 48.4 76.2 45.1 68.8 45.1C55.6 45.1 44.8 55.8 44.8 69.1C44.8 76.4 48.1001 83 53.2001 87.3C53.2001 87.3 53.3 87.4 53.4 87.3C53.5 87.3 53.5 87.2 53.5 87.2C54.3 86.1 55.1001 84.8 55.7001 83.8V83.7L55.6 83.6C51.7 80 49.2 74.8 49.2 69Z" fill="#01A78F"/>
<path d="M102.497 69C99.8168 69 97.3037 69.1675 95.1257 69.6702C88.5916 70.8429 87.4188 73.1885 87.4188 77.5445V83.4084H102.832V85.4188H81.7225C77.199 85.4188 73.3455 88.0995 72.0052 93.1257C70.6649 98.9895 70.6649 102.675 72.0052 108.707C73.178 113.398 75.8586 116.581 80.2147 116.581H85.5759V109.544C85.5759 104.518 89.9319 99.9948 95.1257 99.9948H110.372C114.728 99.9948 118.079 96.4764 118.079 92.288V77.5445C118.079 73.5236 114.56 70.3403 110.372 69.6702C107.859 69.1675 105.01 69 102.497 69ZM94.1204 73.6911C95.7958 73.6911 96.9686 75.0314 96.9686 76.7068C96.9686 78.2147 95.7958 79.555 94.1204 79.555C92.6126 79.555 91.2723 78.2147 91.2723 76.7068C91.2723 75.0314 92.6126 73.6911 94.1204 73.6911Z" fill="#5A9FD4"/>
<path d="M103.168 133C105.848 133 108.361 132.832 110.539 132.33C117.073 131.157 118.246 128.812 118.246 124.455V118.592H102.832V116.581H123.942C128.466 116.581 132.319 113.901 133.66 108.874C135 103.01 135 99.3246 133.66 93.2932C132.487 88.6021 129.806 85.4189 125.45 85.4189H120.089V92.4555C120.089 97.4817 115.733 102.005 110.539 102.005H95.2932C90.9372 102.005 87.5864 105.524 87.5864 109.712V124.455C87.5864 128.476 91.1047 131.66 95.2932 132.33C97.8063 132.832 100.654 133 103.168 133ZM111.544 128.309C109.869 128.309 108.696 126.969 108.696 125.293C108.696 123.785 109.869 122.445 111.544 122.445C113.052 122.445 114.393 123.785 114.393 125.293C114.393 126.969 113.052 128.309 111.544 128.309Z" fill="#FFD43B"/>
<path d="M176.548 99.832C183.524 99.832 189.348 96.888 193.316 92.472V77.048H173.348V81.784H188.004V90.488C185.892 92.6 181.668 95.096 176.548 95.096C167.204 95.096 160.1 87.8 160.1 77.688C160.1 67.512 167.204 60.344 176.548 60.344C181.668 60.344 186.212 62.776 188.9 66.232L193.124 63.608C189.348 58.936 184.1 55.608 176.548 55.608C164.388 55.608 154.596 64.44 154.596 77.688C154.596 90.936 164.388 99.832 176.548 99.832ZM207.197 99V77.112C208.605 74.616 212.637 72.184 215.581 72.184C216.349 72.184 216.925 72.248 217.501 72.376V67.448C213.277 67.448 209.693 69.816 207.197 73.08V68.088H202.397V99H207.197ZM238.114 99.768C243.17 99.768 247.33 98.104 250.402 95.032L248.098 91.896C245.666 94.392 242.082 95.8 238.562 95.8C231.906 95.8 227.81 90.936 227.426 85.112H252.45V83.896C252.45 74.616 246.946 67.32 237.602 67.32C228.77 67.32 222.37 74.552 222.37 83.512C222.37 93.176 228.962 99.768 238.114 99.768ZM247.714 81.592H227.426C227.682 76.856 230.946 71.288 237.538 71.288C244.578 71.288 247.65 76.984 247.714 81.592ZM274.817 99.768C279.873 99.768 284.033 98.104 287.105 95.032L284.801 91.896C282.369 94.392 278.785 95.8 275.265 95.8C268.609 95.8 264.513 90.936 264.129 85.112H289.153V83.896C289.153 74.616 283.649 67.32 274.305 67.32C265.473 67.32 259.073 74.552 259.073 83.512C259.073 93.176 265.665 99.768 274.817 99.768ZM284.417 81.592H264.129C264.385 76.856 267.649 71.288 274.241 71.288C281.281 71.288 284.353 76.984 284.417 81.592ZM323.231 99V77.304C323.231 70.584 319.839 67.32 313.375 67.32C308.767 67.32 304.543 70.008 302.367 72.568V68.088H297.567V99H302.367V76.408C304.159 73.912 307.743 71.608 311.519 71.608C315.679 71.608 318.431 73.336 318.431 78.776V99H323.231ZM348.689 99.768C356.817 99.768 362.449 93.496 362.449 83.512C362.449 73.464 356.817 67.32 348.689 67.32C344.337 67.32 340.497 69.56 338.257 72.696V68.088H333.457V110.776H338.257V94.328C340.753 97.784 344.465 99.768 348.689 99.768ZM347.473 95.48C343.697 95.48 339.921 93.176 338.257 90.488V76.536C339.921 73.848 343.697 71.608 347.473 71.608C353.681 71.608 357.393 76.664 357.393 83.512C357.393 90.36 353.681 95.48 347.473 95.48ZM375.522 99V56.312H370.722V99H375.522ZM411.401 99V68.088H406.601V90.808C404.809 93.304 401.225 95.48 397.449 95.48C393.289 95.48 390.537 93.88 390.537 88.44V68.088H385.737V89.912C385.737 96.632 389.129 99.768 395.593 99.768C400.201 99.768 404.233 97.336 406.601 94.648V99H411.401ZM463.739 99V76.664C463.739 70.456 460.731 67.32 455.099 67.32C450.619 67.32 446.459 70.264 444.731 73.08C443.835 69.88 441.147 67.32 436.411 67.32C431.867 67.32 427.707 70.584 426.427 72.568V68.088H421.627V99H426.427V76.408C428.091 73.912 431.419 71.608 434.555 71.608C438.587 71.608 440.251 74.104 440.251 78.008V99H445.051V76.344C446.651 73.912 450.043 71.608 453.243 71.608C457.211 71.608 458.939 74.104 458.939 78.008V99H463.739ZM482.467 99V83.832H493.347C502.563 83.832 507.683 77.496 507.683 70.072C507.683 62.584 502.627 56.312 493.347 56.312H473.379V99H482.467ZM492.131 75.832H482.467V64.312H492.131C495.715 64.312 498.403 66.488 498.403 70.072C498.403 73.592 495.715 75.832 492.131 75.832ZM512.676 111.096C513.7 111.352 515.748 111.544 516.708 111.544C522.02 111.416 526.116 109.88 528.42 104.056L542.948 68.088H534.18L526.116 89.592L518.052 68.088H509.348L521.892 99.448L520.74 102.072C519.972 103.736 518.564 104.312 516.452 104.312C515.684 104.312 514.596 104.12 513.892 103.8L512.676 111.096ZM557.585 99.768C560.977 99.768 563.153 98.872 564.369 97.784L562.641 91.64C562.193 92.088 561.041 92.536 559.825 92.536C558.033 92.536 557.009 91.064 557.009 89.144V75.192H563.281V68.088H557.009V59.64H548.817V68.088H543.697V75.192H548.817V91.32C548.817 96.824 551.889 99.768 557.585 99.768ZM598.538 99V77.048C598.538 71.032 595.274 67.32 588.49 67.32C583.434 67.32 579.594 69.752 577.61 72.12V56.312H569.482V99H577.61V78.2C579.018 76.344 581.514 74.552 584.65 74.552C588.17 74.552 590.41 75.896 590.41 80.184V99H598.538ZM621.583 99.768C631.823 99.768 637.967 92.344 637.967 83.512C637.967 74.744 631.823 67.32 621.583 67.32C611.407 67.32 605.263 74.744 605.263 83.512C605.263 92.344 611.407 99.768 621.583 99.768ZM621.583 92.536C616.527 92.536 613.711 88.376 613.711 83.512C613.711 78.712 616.527 74.552 621.583 74.552C626.639 74.552 629.519 78.712 629.519 83.512C629.519 88.376 626.639 92.536 621.583 92.536ZM673.629 99V77.176C673.629 71.16 670.365 67.32 663.581 67.32C658.525 67.32 654.749 69.752 652.765 72.12V68.088H644.637V99H652.765V78.2C654.109 76.344 656.605 74.552 659.805 74.552C663.261 74.552 665.501 76.024 665.501 80.312V99H673.629Z" fill="#253640"/>
</svg>
